<svg width="28" height="28" viewBox="0 0 28 28" fill="none" xmlns="http://www.w3.org/2000/svg">
<path d="M14.0001 4.66663C15.2378 4.66663 16.4247 5.15829 17.2999 6.03346C18.1751 6.90863 18.6667 8.09562 18.6667 9.33329C18.6667 10.571 18.1751 11.758 17.2999 12.6331C16.4247 13.5083 15.2378 14 14.0001 14C12.7624 14 11.5754 13.5083 10.7003 12.6331C9.82508 11.758 9.33342 10.571 9.33342 9.33329C9.33342 8.09562 9.82508 6.90863 10.7003 6.03346C11.5754 5.15829 12.7624 4.66663 14.0001 4.66663ZM14.0001 16.3333C19.1567 16.3333 23.3334 18.4216 23.3334 21V23.3333H4.66675V21C4.66675 18.4216 8.84341 16.3333 14.0001 16.3333Z" fill="#91A6C4"/>
</svg>
