<svg width="28" height="28" viewBox="0 0 28 28" fill="none" xmlns="http://www.w3.org/2000/svg">
<path d="M24.5 7H3.49996C2.88112 7 2.28763 7.24583 1.85004 7.68342C1.41246 8.121 1.16663 8.7145 1.16663 9.33333V18.6667C1.16663 19.2855 1.41246 19.879 1.85004 20.3166C2.28763 20.7542 2.88112 21 3.49996 21H24.5C25.1188 21 25.7123 20.7542 26.1499 20.3166C26.5875 19.879 26.8333 19.2855 26.8333 18.6667V9.33333C26.8333 8.7145 26.5875 8.121 26.1499 7.68342C25.7123 7.24583 25.1188 7 24.5 7ZM12.8333 15.1667H9.33329V18.6667H6.99996V15.1667H3.49996V12.8333H6.99996V9.33333H9.33329V12.8333H12.8333M18.0833 17.5C17.6192 17.5 17.174 17.3156 16.8459 16.9874C16.5177 16.6593 16.3333 16.2141 16.3333 15.75C16.3333 15.2859 16.5177 14.8408 16.8459 14.5126C17.174 14.1844 17.6192 14 18.0833 14C18.5474 14 18.9925 14.1844 19.3207 14.5126C19.6489 14.8408 19.8333 15.2859 19.8333 15.75C19.8333 16.2141 19.6489 16.6593 19.3207 16.9874C18.9925 17.3156 18.5474 17.5 18.0833 17.5ZM22.75 14C22.2858 14 21.8407 13.8156 21.5125 13.4874C21.1843 13.1592 21 12.7141 21 12.25C21 11.7859 21.1843 11.3408 21.5125 11.0126C21.8407 10.6844 22.2858 10.5 22.75 10.5C23.2141 10.5 23.6592 10.6844 23.9874 11.0126C24.3156 11.3408 24.5 11.7859 24.5 12.25C24.5 12.7141 24.3156 13.1592 23.9874 13.4874C23.6592 13.8156 23.2141 14 22.75 14Z" fill="#A2B3CD"/>
</svg>
