<svg width="28" height="28" viewBox="0 0 28 28" fill="none" xmlns="http://www.w3.org/2000/svg">
<path d="M24.5 7H3.50001C2.88117 7 2.28767 7.24583 1.85009 7.68342C1.4125 8.121 1.16667 8.71449 1.16667 9.33333V18.6667C1.16667 19.2855 1.4125 19.879 1.85009 20.3166C2.28767 20.7542 2.88117 21 3.50001 21H24.5C25.1188 21 25.7123 20.7542 26.1499 20.3166C26.5875 19.879 26.8333 19.2855 26.8333 18.6667V9.33333C26.8333 8.71449 26.5875 8.121 26.1499 7.68342C25.7123 7.24583 25.1188 7 24.5 7ZM12.8333 15.1667H9.33334V18.6667H7V15.1667H3.50001V12.8333H7V9.33333H9.33334V12.8333H12.8333M18.0833 17.5C17.6192 17.5 17.1741 17.3156 16.8459 16.9874C16.5177 16.6592 16.3333 16.2141 16.3333 15.75C16.3333 15.2859 16.5177 14.8408 16.8459 14.5126C17.1741 14.1844 17.6192 14 18.0833 14C18.5475 14 18.9926 14.1844 19.3208 14.5126C19.649 14.8408 19.8333 15.2859 19.8333 15.75C19.8333 16.2141 19.649 16.6592 19.3208 16.9874C18.9926 17.3156 18.5475 17.5 18.0833 17.5ZM22.75 14C22.2859 14 21.8408 13.8156 21.5126 13.4874C21.1844 13.1592 21 12.7141 21 12.25C21 11.7859 21.1844 11.3408 21.5126 11.0126C21.8408 10.6844 22.2859 10.5 22.75 10.5C23.2141 10.5 23.6593 10.6844 23.9874 11.0126C24.3156 11.3408 24.5 11.7859 24.5 12.25C24.5 12.7141 24.3156 13.1592 23.9874 13.4874C23.6593 13.8156 23.2141 14 22.75 14Z" fill="#9074FF"/>
</svg>
