<svg width="24" height="24" viewBox="0 0 24 24" fill="none" xmlns="http://www.w3.org/2000/svg">
<path d="M10.6806 16.1546V12.9844H12.0076H13.3347V14.6432V16.3094L12.0076 17.8208L10.6806 19.3321V16.1546ZM3.08687 17.4964V15.7344L3.34491 15.55C3.85361 15.1888 4.70882 14.3704 5.23965 13.7364C6.34552 12.4167 7.21548 10.8685 7.77579 9.19495L8.10018 8.22916L7.879 8.20704C7.44402 8.1628 4.34757 8.6199 3.30068 8.89268C3.13111 8.93692 3.02052 8.8337 2.0621 7.72045C1.48704 7.05693 1.00783 6.48187 1.00046 6.45238C0.978339 6.37129 1.75982 6.1796 3.4555 5.84047C5.88105 5.35388 7.76104 5.12533 10.076 5.04424L11.4178 5V5.69302C11.4178 7.68359 10.8133 10.0502 9.75899 12.2103C8.63837 14.5105 7.10489 16.4126 5.11431 17.9609C4.50239 18.4401 3.26381 19.251 3.14585 19.251C3.11636 19.251 3.08687 18.4622 3.08687 17.4964ZM20.0289 18.7497C17.4854 17.0688 15.539 14.8497 14.2194 12.1366C13.1946 10.0428 12.5974 7.6541 12.5974 5.69302V5L13.9466 5.04424C16.2837 5.13271 18.1415 5.35388 20.5597 5.84047C22.2554 6.1796 22.9926 6.36391 23 6.44501C23 6.48187 22.5282 7.05693 21.9531 7.72045C21.1053 8.70837 20.8693 8.92954 20.7514 8.90005C19.7561 8.66413 16.4753 8.17018 16.1362 8.20704L15.915 8.22916L16.2394 9.19495C16.7997 10.8685 17.6697 12.4167 18.7756 13.7364C19.3064 14.3704 20.1616 15.1888 20.6703 15.55L20.9283 15.7344V17.4964C20.9283 18.4917 20.8988 19.251 20.862 19.251C20.8251 19.251 20.4491 19.0225 20.0289 18.7497Z" fill="white"/>
</svg>
