<svg width="109" height="165" viewBox="0 0 109 165" fill="none" xmlns="http://www.w3.org/2000/svg">
<path fill-rule="evenodd" clip-rule="evenodd" d="M0 1.50456C0 0.673614 0.662457 0 1.47964 0H85.3258C90.5013 0 94.6968 4.26622 94.6968 9.52888V74.7264C94.6968 78.3272 97.5675 81.2462 101.109 81.2462H107.495C108.326 81.2462 109 81.9198 109 82.7508C109 83.5817 108.326 84.2553 107.495 84.2553H101.109C95.9331 84.2553 91.7376 79.9891 91.7376 74.7264V9.52888C91.7376 5.92811 88.8669 3.00912 85.3258 3.00912H1.47964C0.662457 3.00912 0 2.3355 0 1.50456Z" fill="#91A6C4"/>
<path fill-rule="evenodd" clip-rule="evenodd" d="M0 163.495C0 164.326 0.662457 165 1.47964 165H85.3258C90.5013 165 94.6968 160.734 94.6968 155.471V91.2766C94.6968 87.6758 97.5675 84.7568 101.109 84.7568H107.495C108.326 84.7568 109 84.0832 109 83.2523C109 82.4213 108.326 81.7477 107.495 81.7477H101.109C95.9331 81.7477 91.7376 86.0139 91.7376 91.2766V155.471C91.7376 159.072 88.8669 161.991 85.3258 161.991H1.47964C0.662457 161.991 0 162.664 0 163.495Z" fill="#91A6C4"/>
</svg>
