<svg width="28" height="28" viewBox="0 0 28 28" fill="none" xmlns="http://www.w3.org/2000/svg">
<path d="M14 4.66675C15.2376 4.66675 16.4246 5.15841 17.2998 6.03358C18.175 6.90875 18.6666 8.09574 18.6666 9.33342C18.6666 10.5711 18.175 11.7581 17.2998 12.6332C16.4246 13.5084 15.2376 14.0001 14 14.0001C12.7623 14.0001 11.5753 13.5084 10.7001 12.6332C9.82496 11.7581 9.33329 10.5711 9.33329 9.33342C9.33329 8.09574 9.82496 6.90875 10.7001 6.03358C11.5753 5.15841 12.7623 4.66675 14 4.66675ZM14 16.3334C19.1566 16.3334 23.3333 18.4217 23.3333 21.0001V23.3334H4.66663V21.0001C4.66663 18.4217 8.84329 16.3334 14 16.3334Z" fill="#9074FF"/>
</svg>
