<svg width="28" height="28" viewBox="0 0 28 28" fill="none" xmlns="http://www.w3.org/2000/svg">
<path d="M7.23331 2.84668L21.1166 16.73L23.59 14.2567L25.235 15.9017L22.3533 18.7833L26.0633 22.4933C26.5183 22.9483 26.5183 23.6833 26.0633 24.1383L25.235 24.9667C25.127 25.0748 24.9988 25.1606 24.8577 25.2192C24.7166 25.2777 24.5653 25.3079 24.4125 25.3079C24.2597 25.3079 24.1084 25.2777 23.9673 25.2192C23.8261 25.1606 23.6979 25.0748 23.59 24.9667L19.8333 21.2683L16.9866 24.15L15.3416 22.505L17.815 20.0317L3.93164 6.14835V2.84668H7.23331ZM18.5383 11.6667L24.0683 6.13668V2.84668H20.7666L15.2366 8.37668L18.5383 11.6667ZM12.7633 17.5L9.46164 14.1517L6.88331 16.73L4.40998 14.2567L2.76498 15.9017L5.64664 18.7833L1.93664 22.505C1.82849 22.6129 1.74268 22.7412 1.68414 22.8823C1.62559 23.0234 1.59546 23.1747 1.59546 23.3275C1.59546 23.4803 1.62559 23.6316 1.68414 23.7727C1.74268 23.9139 1.82849 24.0421 1.93664 24.15L2.76498 24.9783C3.21998 25.4333 3.95498 25.4333 4.40998 24.9783L8.16664 21.2683L11.0133 24.15L12.6583 22.505L10.185 20.0317L12.7633 17.5Z" fill="#91A6C4"/>
</svg>
