<svg width="12" height="12" viewBox="0 0 12 12" fill="none" xmlns="http://www.w3.org/2000/svg">
<path d="M3.10006 1.21997L9.05006 7.16997L10.1101 6.10997L10.8151 6.81497L9.58006 8.04997L11.1701 9.63997C11.3651 9.83497 11.3651 10.15 11.1701 10.345L10.8151 10.7C10.7688 10.7463 10.7139 10.7831 10.6534 10.8082C10.5929 10.8333 10.528 10.8462 10.4626 10.8462C10.3971 10.8462 10.3322 10.8333 10.2717 10.8082C10.2113 10.7831 10.1563 10.7463 10.1101 10.7L8.50006 9.11497L7.28006 10.35L6.57506 9.64497L7.63506 8.58497L1.68506 2.63497V1.21997H3.10006ZM7.94506 4.99997L10.3151 2.62997V1.21997H8.90006L6.53006 3.58997L7.94506 4.99997ZM5.47006 7.49997L4.05506 6.06497L2.95006 7.16997L1.89006 6.10997L1.18506 6.81497L2.42006 8.04997L0.83006 9.64497C0.783708 9.69123 0.746934 9.74617 0.721844 9.80666C0.696753 9.86715 0.683838 9.93199 0.683838 9.99747C0.683838 10.063 0.696753 10.1278 0.721844 10.1883C0.746934 10.2488 0.783708 10.3037 0.83006 10.35L1.18506 10.705C1.38006 10.9 1.69506 10.9 1.89006 10.705L3.50006 9.11497L4.72006 10.35L5.42506 9.64497L4.36506 8.58497L5.47006 7.49997Z" fill="#181818"/>
</svg>
