<svg width="24" height="24" viewBox="0 0 24 24" fill="none" xmlns="http://www.w3.org/2000/svg">
<path d="M10.8261 22.1287C8.57393 20.3221 6.89567 18.6256 5.31307 16.5347C4.40873 15.3425 2.99134 13.1416 3.00004 12.9399C3.00004 12.9032 3.30439 12.6464 3.66091 12.3713C4.89568 11.4268 5.49568 10.5648 5.80003 9.32675L5.97394 8.57477L5.73046 8.40054C5.35655 8.12542 4.21743 6.88741 4.21743 6.74986C4.21743 6.66732 4.55655 6.58479 5.30438 6.47475C5.89568 6.38304 6.63481 6.22714 6.93046 6.10793L7.47828 5.90618L7.48698 5.08084C7.49567 3.75113 7.88697 2.65068 8.6348 1.807C8.97393 1.42184 9.55653 1 9.73044 1C9.75653 1 9.89566 1.23843 10.0348 1.52271C10.4348 2.35722 10.7913 2.80657 11.2783 3.1092C11.8609 3.45767 12.1391 3.45767 12.7217 3.1092C13.2087 2.80657 13.5652 2.35722 13.9652 1.53188C14.1043 1.23843 14.2435 1 14.2696 1C14.4435 1 15.0261 1.42184 15.3652 1.807C16.113 2.65068 16.5043 3.75113 16.513 5.08084L16.5217 5.90618L17.0695 6.10793C17.3652 6.22714 18.1043 6.38304 18.6956 6.47475C19.4434 6.58479 19.7826 6.66732 19.7826 6.74986C19.7826 6.88741 18.6434 8.12542 18.2695 8.40054L18.0261 8.57477L18.2 9.32675C18.5043 10.5648 19.1043 11.4268 20.3391 12.3713C20.6956 12.6464 21 12.9032 21 12.9399C21.0087 13.1416 19.5913 15.3425 18.6869 16.5347C17.0782 18.6531 15.4522 20.3037 13.2435 22.0645C12.5826 22.578 12.0174 23.009 11.9826 22.9999C11.9478 22.9999 11.4261 22.6055 10.8261 22.1287ZM11.6957 21.3584C11.9652 21.1291 12.0087 21.1291 12.313 21.3675L12.5652 21.5601L13.1652 21.0924C13.7826 20.6064 14.0348 20.3496 13.9043 20.3496C13.8609 20.3404 13.713 20.2396 13.5652 20.1203L13.3043 19.8911L14.3043 18.9007L15.2956 17.9103L15.1565 17.3876C15.0869 17.1033 15.0522 16.8648 15.0869 16.8648C15.1304 16.8648 15.3826 17.1858 15.6609 17.571L16.1652 18.2771L16.7217 17.6352C17.5478 16.6814 18.6782 15.1867 19.3478 14.1504L19.9391 13.2334L19.3043 12.7106C18.9565 12.4264 18.5304 12.0137 18.3565 11.7936C17.8 11.0783 17.2608 9.59269 17.2608 8.77652C17.2608 8.58394 17.2522 8.42805 17.2348 8.42805C17.2174 8.42805 17.0261 8.49224 16.8087 8.5656L16.4174 8.71233L16.3652 10.6565C16.3304 12.1879 16.2782 12.7473 16.1391 13.3067C15.8174 14.6273 14.9478 16.1495 13.8609 17.3234C13.2174 18.0203 12.1043 18.8365 11.9043 18.7539C11.5913 18.6256 10.6696 17.8919 10.2087 17.3967C9.44349 16.5714 8.86088 15.7185 8.39132 14.7098C7.79132 13.4259 7.70437 12.9399 7.6348 10.6565L7.58263 8.7215L7.22611 8.57477C7.02611 8.49224 6.8435 8.42805 6.81741 8.42805C6.78263 8.42805 6.73915 8.68482 6.71307 8.99661C6.6435 9.95034 6.20872 11.0691 5.63481 11.8028C5.46959 12.0229 5.04351 12.4264 4.69568 12.7198L4.05221 13.2334L4.62612 14.1137C5.60872 15.6085 7.66958 18.2404 7.86089 18.2404C7.89567 18.2404 7.98263 18.1212 8.06958 17.9745C8.24349 17.6627 8.81741 16.9199 8.91306 16.8832C8.94784 16.8648 8.92175 17.0849 8.84349 17.3692L8.70436 17.8828L9.15653 18.3596C9.40001 18.6256 9.83479 19.0474 10.1217 19.295C10.4087 19.5518 10.6435 19.7994 10.6435 19.8544C10.6522 19.9094 10.5131 20.0561 10.3391 20.1845L10.0348 20.423L10.4087 20.7348C11.0348 21.2575 11.3913 21.5418 11.4348 21.5418C11.4609 21.5418 11.5739 21.4592 11.6957 21.3584ZM13.6522 16.9474C13.9391 16.6264 14.3217 16.1587 14.4956 15.9019C14.8261 15.4159 15.4695 14.1137 15.3826 14.1137C15.3565 14.1137 15.0609 14.1962 14.7304 14.3063C14.1913 14.4805 14.1043 14.5356 13.913 14.884C13.7913 15.0949 13.6 15.3701 13.4783 15.4893L13.2609 15.7002V14.9574C13.2609 14.2146 13.2609 14.2054 13.5043 14.1596C14.0869 14.0312 15.1043 13.7377 15.3826 13.6185C15.6435 13.5085 15.6869 13.4259 15.7826 12.9949C15.9391 12.2246 16.0435 11.0416 16.0435 9.91366C16.0435 8.70316 16.1478 8.75818 14.9391 9.34509C14.0174 9.79444 13.5304 10.1521 12.7652 10.9407C12.1304 11.5735 12.1304 11.5735 12.1304 12.0687V12.5639L12.4609 12.5089C13.1217 12.3897 13.3478 12.2796 13.3478 12.0687C13.3478 11.9312 13.4869 11.7569 13.7565 11.546C14.0435 11.3259 14.2783 11.0233 14.513 10.5648C14.7043 10.1979 14.8782 9.91366 14.8869 9.932C14.9043 9.95034 14.8522 10.1337 14.7826 10.3538C14.6087 10.8766 14.6174 10.9132 14.8696 10.849C15.0782 10.794 15.0869 10.8124 15.0348 11.0966C14.9217 11.6927 14.7478 11.9953 14.3217 12.3163C14.0783 12.5089 13.8 12.8207 13.6696 13.0775C13.4174 13.5543 13.0435 14.0679 13.113 13.8386C13.1391 13.7652 13.2435 13.481 13.3391 13.2058L13.5304 12.7106L13.2783 12.7657C13.1391 12.7932 12.8261 12.8482 12.5739 12.8849L12.1304 12.9491V18.2496L12.6348 17.8919C12.9043 17.6902 13.3652 17.2683 13.6522 16.9474ZM11.8696 15.5535V12.9491L11.2 12.7932C10.8261 12.7106 10.2957 12.5456 10.0261 12.4264L9.52175 12.2063L9.56523 12.408C9.71305 13.1692 9.8174 13.6277 9.86957 13.7377C9.90436 13.8111 10.1044 13.9395 10.3131 14.0312L10.6957 14.1871L10.7217 14.9391C10.7391 15.3792 10.713 15.6635 10.6696 15.636C10.4522 15.4984 9.75653 14.2696 9.56523 13.6919C9.35653 13.0499 9.07827 10.8857 9.19132 10.7573C9.32175 10.6198 10.6522 11.7569 10.6522 12.0045C10.6522 12.0962 10.7044 12.2063 10.7652 12.2613C10.8435 12.3346 11.6522 12.5547 11.8261 12.5547C11.8522 12.5547 11.8696 12.3255 11.8696 12.0412C11.8696 11.546 11.8609 11.5185 11.3739 11.0049C10.6 10.1979 9.36523 9.40011 8.18263 8.94159C8.0261 8.88657 8.01741 8.94159 8.06958 10.6931C8.10436 12.087 8.15654 12.674 8.29567 13.2058C8.69567 14.8198 9.87827 16.6723 11.1478 17.681C11.4783 17.9378 11.7652 18.1487 11.8087 18.1487C11.8435 18.1487 11.8696 16.9841 11.8696 15.5535ZM13.5652 9.63854C14.2435 9.16168 14.8782 8.84072 16.2609 8.25381C16.8869 7.99704 17.6087 7.64856 17.8695 7.49266L18.3478 7.19921L17.8 7.12585C17.1304 7.04331 16.3565 6.82322 15.9913 6.59396L15.713 6.42889L15.3913 6.9241C15.0609 7.42847 14.1826 8.33634 13.8522 8.52892C13.6174 8.65731 13.6869 8.54726 14.2609 7.83197C14.8435 7.1075 15.1217 6.58479 15.4 5.7136C15.5913 5.11752 15.6174 4.88826 15.5739 4.4114C15.5217 3.78781 15.1739 2.85243 14.8956 2.58648C14.7304 2.43059 14.7217 2.43976 14.4956 2.74238C14.3652 2.91662 14.1739 3.15505 14.0609 3.25593L13.8609 3.45767L14.0348 3.7603C14.2609 4.18214 14.3304 4.59481 14.2609 5.10835C14.1739 5.77779 14.1304 5.81447 13.713 5.59438C13.5217 5.49351 13.0696 5.16337 12.7043 4.85158C12.3391 4.54896 12.0261 4.30135 12 4.30135C11.9739 4.30135 11.6609 4.54896 11.2957 4.85158C10.7391 5.31927 10.0696 5.76862 9.92175 5.76862C9.90436 5.76862 9.84349 5.5577 9.78262 5.3101C9.65218 4.75071 9.72175 4.17297 9.96523 3.7603L10.1391 3.45767L9.73044 2.98998C9.50436 2.72404 9.30436 2.49478 9.28697 2.47644C9.2348 2.39391 8.97393 2.71487 8.78262 3.11837C8.46958 3.7603 8.34784 4.60398 8.46958 5.23674C8.6261 6.00705 9.17393 7.10751 9.78262 7.85948C10.0783 8.23547 10.3044 8.55643 10.2783 8.57477C10.1478 8.71233 8.68697 7.1717 8.39132 6.59396C8.30436 6.41972 8.29567 6.41972 8.01741 6.59396C7.65219 6.82322 6.87828 7.04331 6.20003 7.12585L5.6522 7.19921L6.13046 7.49266C6.39133 7.64856 7.11306 7.99704 7.73915 8.25381C9.78262 9.11583 10.687 9.67522 11.5652 10.6198L11.9913 11.0875L12.5217 10.5464C12.8087 10.253 13.2783 9.84029 13.5652 9.63854Z" fill="#657893"/>
<path d="M13.7131 12.087C13.7392 11.8119 13.774 11.7753 14.0261 11.7477C14.2348 11.7294 14.3044 11.6744 14.3044 11.546C14.3044 11.3718 14.6174 11.115 14.7131 11.2159C14.8348 11.3442 14.4087 11.977 14.0609 12.1788L13.687 12.3897L13.7131 12.087Z" fill="#91A6C4"/>
</svg>
