<svg width="28" height="28" viewBox="0 0 28 28" fill="none" xmlns="http://www.w3.org/2000/svg">
<path d="M24.5001 7H3.50008C2.88124 7 2.28775 7.24583 1.85017 7.68342C1.41258 8.121 1.16675 8.7145 1.16675 9.33333V18.6667C1.16675 19.2855 1.41258 19.879 1.85017 20.3166C2.28775 20.7542 2.88124 21 3.50008 21H24.5001C25.1189 21 25.7124 20.7542 26.15 20.3166C26.5876 19.879 26.8334 19.2855 26.8334 18.6667V9.33333C26.8334 8.7145 26.5876 8.121 26.15 7.68342C25.7124 7.24583 25.1189 7 24.5001 7ZM12.8334 15.1667H9.33342V18.6667H7.00008V15.1667H3.50008V12.8333H7.00008V9.33333H9.33342V12.8333H12.8334M18.0834 17.5C17.6193 17.5 17.1742 17.3156 16.846 16.9874C16.5178 16.6593 16.3334 16.2141 16.3334 15.75C16.3334 15.2859 16.5178 14.8408 16.846 14.5126C17.1742 14.1844 17.6193 14 18.0834 14C18.5475 14 18.9927 14.1844 19.3209 14.5126C19.649 14.8408 19.8334 15.2859 19.8334 15.75C19.8334 16.2141 19.649 16.6593 19.3209 16.9874C18.9927 17.3156 18.5475 17.5 18.0834 17.5ZM22.7501 14C22.286 14 21.8408 13.8156 21.5126 13.4874C21.1845 13.1592 21.0001 12.7141 21.0001 12.25C21.0001 11.7859 21.1845 11.3408 21.5126 11.0126C21.8408 10.6844 22.286 10.5 22.7501 10.5C23.2142 10.5 23.6593 10.6844 23.9875 11.0126C24.3157 11.3408 24.5001 11.7859 24.5001 12.25C24.5001 12.7141 24.3157 13.1592 23.9875 13.4874C23.6593 13.8156 23.2142 14 22.7501 14Z" fill="#91A6C4"/>
</svg>
